<svg width="32" height="32" viewBox="0 0 32 32" fill="none" xmlns="http://www.w3.org/2000/svg">
  <!-- Dark gray background -->
  <rect width="32" height="32" rx="6" fill="#2D3748"/>
  
  <!-- Simplified circuit elements -->
  <circle cx="8" cy="8" r="1" fill="#4ADE80"/>
  <circle cx="24" cy="8" r="1" fill="#4ADE80"/>
  <circle cx="8" cy="24" r="1" fill="#60A5FA"/>
  <circle cx="24" cy="24" r="1" fill="#60A5FA"/>
  
  <!-- Gradients -->
  <defs>
    <linearGradient id="blueGradientSmall" x1="0%" y1="0%" x2="100%" y2="0%">
      <stop offset="0%" style="stop-color:#3B82F6"/>
      <stop offset="100%" style="stop-color:#06B6D4"/>
    </linearGradient>
    
    <linearGradient id="greenGradientSmall" x1="0%" y1="0%" x2="100%" y2="0%">
      <stop offset="0%" style="stop-color:#10B981"/>
      <stop offset="100%" style="stop-color:#059669"/>
    </linearGradient>
  </defs>
  
  <!-- MIA text (BLUE gradient) -->
  <g fill="url(#blueGradientSmall)">
    <path d="M8 12 L8 16 L9 14 L10 16 L10 12 L11 12 L11 18 L10 18 L9 16 L8 18 L7 18 L7 12 Z"/>
    <path d="M12 12 L13 12 L13 18 L12 18 Z"/>
    <path d="M14 18 L15 12 L16 12 L17 18 L16.5 18 L16.3 17 L14.7 17 L14.5 18 Z M15 13 L15.5 15 L16 13 Z"/>
  </g>
  
  <!-- JJD text (GREEN gradient) -->
  <g fill="url(#greenGradientSmall)">
    <path d="M8 20 L9 20 L9 26 L8 26 L8 25 L8.5 25 L8.5 21 L8 21 Z"/>
    <path d="M10 20 L11 20 L11 26 L10 26 L10 25 L10.5 25 L10.5 21 L10 21 Z"/>
    <path d="M12 20 L13 20 L13 26 L12 26 Z M12 20 L14 20 L14 21 L13 21 L13 25 L14 25 L14 26 L12 26 Z"/>
  </g>
</svg>
